<svg width="24" height="24" viewBox="0 0 24 24" fill="none" xmlns="http://www.w3.org/2000/svg">
<g id="baby">
<path id="Vector" d="M8.97979 12.0436H8.98986M15.0232 12.0436H15.0332M9.98702 16.063C10.4906 16.3644 11.1957 16.5654 12.0015 16.5654C12.8073 16.5654 13.5123 16.3644 14.0159 16.063M19.0506 6.31599C19.9631 7.45716 20.5852 8.80175 20.8636 10.2349C21.2042 10.3994 21.4914 10.6564 21.6924 10.9763C21.8934 11.2962 22 11.6661 22 12.0436C22 12.4211 21.8934 12.791 21.6924 13.1109C21.4914 13.4308 21.2042 13.6878 20.8636 13.8523C20.4288 15.8756 19.3116 17.6889 17.6986 18.9896C16.0855 20.2904 14.0741 21 12 21C9.92587 21 7.91447 20.2904 6.30141 18.9896C4.68835 17.6889 3.57121 15.8756 3.13638 13.8523C2.79579 13.6878 2.50855 13.4308 2.30758 13.1109C2.1066 12.791 2 12.4211 2 12.0436C2 11.6661 2.1066 11.2962 2.30758 10.9763C2.50855 10.6564 2.79579 10.3994 3.13638 10.2349C3.55364 8.19556 4.66323 6.36223 6.27795 5.04422C7.89268 3.72621 9.91368 3.0042 12 3C14.0145 3 15.5253 4.10533 15.5253 5.51211C15.5253 6.9189 14.6188 8.02423 13.5108 8.02423C12.7051 8.02423 12 7.62229 12 7.01938" stroke="#252525" stroke-linecap="round" stroke-linejoin="round"/>
</g>
</svg>
