<svg width="24" height="24" viewBox="0 0 24 24" fill="none" xmlns="http://www.w3.org/2000/svg">
<g id="battery-charging">
<path id="Vector" d="M17 7H18C18.5304 7 19.0391 7.21071 19.4142 7.58579C19.7893 7.96086 20 8.46957 20 9V15C20 15.5304 19.7893 16.0391 19.4142 16.4142C19.0391 16.7893 18.5304 17 18 17H16M8 7H6C5.46957 7 4.96086 7.21071 4.58579 7.58579C4.21071 7.96086 4 8.46957 4 9V15C4 15.5304 4.21071 16.0391 4.58579 16.4142C4.96086 16.7893 5.46957 17 6 17H7M13 7L10 12H14L11 17M22 11V13" stroke="#252525" stroke-linecap="round" stroke-linejoin="round"/>
</g>
</svg>
