<svg width="24" height="24" viewBox="0 0 24 24" fill="none" xmlns="http://www.w3.org/2000/svg">
<g id="heater">
<path id="Vector" d="M10.9992 8C12.9992 5 8.99923 5 10.9992 2M15.4992 8C17.4992 5 13.4992 5 15.4992 2M8 16V12M12 16V12M16 16V12M20 6C20.5304 6 21.0391 6.21071 21.4142 6.58579C21.7893 6.96086 22 7.46957 22 8V18C22 18.5304 21.7893 19.0391 21.4142 19.4142C21.0391 19.7893 20.5304 20 20 20H4C3.46957 20 2.96086 19.7893 2.58579 19.4142C2.21071 19.0391 2 18.5304 2 18V8C2 7.46957 2.21071 6.96086 2.58579 6.58579C2.96086 6.21071 3.46957 6 4 6H7M5 20V22M19 20V22" stroke="#252525" stroke-linecap="round" stroke-linejoin="round"/>
</g>
</svg>
