<svg width="131" height="41" viewBox="0 0 131 41" fill="none" xmlns="http://www.w3.org/2000/svg">
<g id="logo">
<g id="Vector">
<path fill-rule="evenodd" clip-rule="evenodd" d="M20 40.5C31.0457 40.5 40 31.5457 40 20.5C40 9.45431 31.0457 0.5 20 0.5C8.95431 0.5 0 9.45431 0 20.5C0 31.5457 8.95431 40.5 20 40.5ZM20 39.0014C30.2181 39.0014 38.5014 30.7181 38.5014 20.5C38.5014 10.2819 30.2181 1.99856 20 1.99856C9.78194 1.99856 1.49856 10.2819 1.49856 20.5C1.49856 30.7181 9.78194 39.0014 20 39.0014Z" fill="#252525"/>
<path d="M27.2299 10.2758C27.8522 10.6388 28.4299 11.031 28.9611 11.4423C29.054 11.4401 29.08 11.3955 29.0969 11.3529C29.5969 10.0959 29.7692 8.82138 29.2893 7.51596C29.1921 7.25153 29.0374 7.01914 28.831 6.82692C28.4398 6.46288 27.9986 6.40646 27.4987 6.58784C26.5806 6.92109 25.7424 7.40127 24.935 7.94011C24.5391 8.20426 24.154 8.48438 23.7597 8.80755C24.961 9.19718 26.1151 9.66478 27.2299 10.2758Z" fill="#252525"/>
<path d="M16.8251 9.03625C15.9764 8.09331 15.048 7.28663 13.9197 6.72467C12.4369 5.98626 11.2958 6.79798 10.8347 7.9562C10.5275 8.72755 10.4881 9.53873 10.5534 10.3634C10.6331 11.371 10.9173 12.3211 11.3011 13.2465C11.3885 13.4571 11.3817 13.6385 11.2821 13.8475C10.2354 16.042 9.5272 18.348 9.05746 20.7286C8.77026 22.1843 8.52207 23.647 8.33164 25.1193C8.30184 25.3498 8.37839 25.469 8.56657 25.581C10.2092 26.5587 11.8817 27.4787 13.6066 28.3056C16.1452 29.5225 18.7588 30.559 21.375 31.5912C21.5353 31.6544 21.6548 31.6511 21.799 31.5486C22.7776 30.8539 23.7587 30.1627 24.7473 29.4824C24.9669 29.3312 24.9427 29.2401 24.7634 29.0726C23.5401 27.9297 22.0405 27.4218 20.4302 27.1656C18.999 26.938 17.5589 26.7367 16.2445 26.0749C13.8526 24.8705 12.4914 22.9176 12.1169 20.2772C11.8193 18.1791 12.5021 16.3442 13.6797 14.651C13.7014 14.6197 13.7182 14.585 13.7624 14.5691C13.5065 15.3171 13.2726 16.061 13.0958 16.8233C12.6714 18.6544 12.757 20.4503 13.5291 22.1733C14.0616 23.3617 14.9575 24.2508 16.0548 24.9426C17.202 25.666 18.4794 26.0024 19.8034 26.1591C21.9021 26.4076 23.8062 27.0905 25.4508 28.4575C26.2919 29.1566 27.2282 29.7179 28.3363 29.8774C29.4064 30.0315 30.4016 29.834 31.2416 29.0965C31.5522 28.8239 31.7639 28.484 31.9056 28.0999C32.0192 27.7922 31.9534 27.5867 31.6831 27.4012C31.1509 27.0358 30.5809 27.0717 29.9983 27.251C29.4305 27.4258 28.8866 27.6805 28.2937 27.7707C27.8404 27.8395 27.3874 27.8571 26.8908 27.7295C27.0972 27.5958 27.2844 27.6214 27.4566 27.5863C28.0938 27.4561 28.6795 27.1992 29.2437 26.8824C29.6952 26.629 30.1412 26.345 30.6761 26.3132C31.2372 26.2798 31.759 26.3978 32.0859 26.9079C32.2197 27.1168 32.3138 27.093 32.4567 26.9473C33.0263 26.366 33.3537 25.6584 33.5009 24.8697C33.6126 24.2716 33.6066 23.6656 33.4769 23.0685C33.4477 22.9338 33.4994 22.8513 33.5619 22.7532C33.755 22.45 34.0115 22.1883 34.1783 21.8633C34.0488 21.7759 33.931 21.8075 33.8203 21.8073C32.5333 21.8051 31.2446 21.7697 29.9597 21.8232C29.3839 21.8471 29.1518 21.5124 28.8285 21.0908C30.1345 21.0908 31.3804 21.0908 32.6264 21.0908C32.6409 21.0643 32.6554 21.0378 32.67 21.0112C30.9078 18.714 28.9378 16.5644 27.5915 13.9699C28.2154 14.5445 28.7637 15.1891 29.3304 15.7982C29.4741 15.7527 29.5107 15.6428 29.5795 15.567C29.772 15.3549 30.1554 15.247 30.4207 15.3342C30.5765 15.3854 30.527 15.4911 30.4937 15.5908C30.3886 15.9054 30.1722 16.1301 29.8446 16.3308C30.3997 16.97 30.9386 17.5907 31.5146 18.2539C31.6295 17.9775 31.6458 17.7427 31.6533 17.5086C31.6799 16.6791 31.4931 15.8687 31.4314 15.049C31.3919 14.5254 31.0926 14.2484 30.7628 13.9451C28.6596 12.0107 26.3211 10.4688 23.5635 9.62588C23.3572 9.56282 23.1542 9.47885 22.9171 9.50305C23.508 9.90813 24.0872 10.3222 24.6212 10.7946C25.1599 11.2712 25.6767 11.7695 26.1052 12.3678C23.6364 10.5399 20.9576 9.24352 17.7788 8.98663C18.2002 9.70605 18.4626 10.4104 18.5927 11.1607C18.607 11.2431 18.5946 11.3301 18.568 11.4288C18.0437 10.5945 17.4875 9.78888 16.8251 9.03625ZM20.1818 16.0254C20.0786 15.8845 19.9255 15.7744 19.8885 15.579C20.0973 15.5991 20.0946 15.6037 20.3464 15.7464C21.3813 16.3328 22.4125 16.915 23.5986 17.1728C24.3245 17.3305 24.9045 17.7635 25.3182 18.392C25.5167 18.6935 25.6709 19.0171 25.7686 19.4303C25.6822 19.3743 25.645 19.3606 25.6228 19.3342C24.9872 18.5778 24.1312 18.2114 23.2049 17.977C21.9908 17.6697 20.9867 17.0408 20.1818 16.0254ZM21.0784 23.6103C21.9592 23.5445 22.8384 23.554 23.7196 23.6244C24.913 23.7197 26.068 23.9642 27.1718 24.433C27.3178 24.4949 27.4736 24.5461 27.5735 24.7139C25.2921 24.5906 23.0854 23.9855 20.7981 23.7516C20.876 23.6003 20.9658 23.6386 21.0784 23.6103ZM27.782 23.2194C27.8262 23.2478 27.8386 23.2666 27.9193 23.4184C26.188 23.2539 24.5984 22.6006 22.8993 22.1885C23.0836 22.1138 23.1412 22.085 23.2546 22.0753C23.7639 22.0722 24.2707 22.1201 24.7726 22.1963C25.8222 22.3556 26.8417 22.6145 27.782 23.2194ZM22.2128 15.8976C22.0484 15.756 21.875 15.6195 21.8876 15.3459C22.408 15.3037 22.9139 15.2898 23.4209 15.3274C23.5104 15.334 23.5852 15.3785 23.6492 15.4397C23.9007 15.6801 24.049 15.9869 24.2523 16.3143C23.5086 16.3695 22.8421 16.3314 22.2128 15.8976ZM17.1263 19.647C17.3944 20.3298 17.694 21.0013 17.9432 21.7622C16.7787 21.1399 16.3054 18.9065 16.6155 18.0255C16.7861 18.571 16.9478 19.0882 17.1263 19.647ZM31.0075 24.6148C31.1337 24.4004 31.2295 24.1658 31.4315 23.9877C31.4632 24.2719 31.4558 24.5483 31.4648 24.8242C31.4825 25.3677 31.4391 25.4077 30.8939 25.3404C30.7126 25.318 30.6488 25.2445 30.7426 25.0755C30.8217 24.933 30.9047 24.7926 31.0075 24.6148Z" fill="#252525"/>
<path d="M18.555 39.2388C16.752 36.1082 14.5919 33.2778 12.069 30.72C10.8471 29.4813 9.56813 28.3071 8.25239 27.1707C8.07493 27.0173 7.94928 26.9745 7.78801 27.1936C6.51303 28.9256 5.68786 30.0098 4.40922 31.7392C4.38179 31.7763 4.04428 32.149 4.00576 32.2291C10.3458 39.7507 17.5504 39.7507 17.5504 39.7507C18.8184 39.7507 18.7032 40.2406 18.555 39.2388Z" fill="#252525"/>
<path d="M31.162 35.7545C30.0287 37.341 30.1153 37.1571 28.6455 38.5115C28.6455 38.5115 26.5418 39.4049 25.2738 39.7795C25.481 38.3855 25.6386 37.1313 25.6686 35.7174C25.7006 34.2086 25.6823 32.7045 25.5379 31.2017C25.5141 30.9545 25.4292 30.7032 25.4931 30.4524C25.6458 30.4362 25.7133 30.5284 25.7916 30.5935C26.0649 30.8206 26.3335 31.0533 26.6068 31.2804C28.0984 32.5205 29.5937 33.7561 31.081 35.0014C31.4605 35.3191 31.4586 35.3393 31.162 35.7545Z" fill="#252525"/>
<path d="M20.4206 33.4431C19.6508 32.8798 18.8814 32.3518 18.0326 31.8105C18.0326 33.4774 18.0326 35.0609 18.0326 36.6417C18.1892 36.6847 18.2663 36.5774 18.3565 36.5182C19.0708 36.0501 19.7822 35.5779 20.4929 35.1044C20.6028 35.0312 20.6869 34.9921 20.8235 35.0848C21.1718 35.3212 21.5426 35.3577 21.8895 35.0794C22.0304 34.9664 22.1198 35.0504 22.2199 35.1156C22.9114 35.5661 23.6003 36.0202 24.292 36.4701C24.3771 36.5254 24.4507 36.614 24.6002 36.5969C24.6002 35.036 24.6002 33.474 24.6002 31.853C24.3276 32.0323 24.0897 32.184 23.8568 32.3432C23.3261 32.7059 22.7952 33.0685 22.2703 33.4395C22.1118 33.5515 21.9864 33.5807 21.8073 33.4598C21.4973 33.2504 21.1586 33.2845 20.8606 33.4862C20.6874 33.6035 20.5693 33.584 20.4206 33.4431Z" fill="#252525"/>
<path d="M21.5562 38.7133C22.0337 38.7133 22.4207 38.3262 22.4207 37.8487C22.4207 37.3712 22.0337 36.9841 21.5562 36.9841C21.0787 36.9841 20.6916 37.3712 20.6916 37.8487C20.6916 38.3262 21.0787 38.7133 21.5562 38.7133Z" fill="#252525"/>
<path d="M45 37.3046V25.9071H48.8116C49.7215 25.9071 50.4705 26.059 51.0587 26.363C51.6579 26.656 52.0962 27.0522 52.3736 27.5516C52.6621 28.0509 52.8063 28.6208 52.8063 29.2612C52.8063 29.8799 52.6621 30.4444 52.3736 30.9545C52.0962 31.4539 51.6634 31.8555 51.0753 32.1594C50.4872 32.4525 49.7326 32.5991 48.8116 32.5991H46.3982V37.3046H45ZM46.3982 31.443H48.7783C49.7104 31.443 50.3762 31.2476 50.7757 30.8569C51.1752 30.4552 51.3749 29.9233 51.3749 29.2612C51.3749 28.5556 51.1752 28.0129 50.7757 27.633C50.3762 27.2422 49.7104 27.0468 48.7783 27.0468H46.3982V31.443Z" fill="#252525"/>
<path d="M54.572 37.3046V29.0984H55.837L55.9368 30.6615C56.1255 30.2924 56.3641 29.9776 56.6526 29.7171C56.9522 29.4566 57.3073 29.2558 57.7178 29.1147C58.1395 28.9735 58.6166 28.903 59.1493 28.903V30.3358H58.6333C58.2782 30.3358 57.9398 30.3847 57.618 30.4824C57.2962 30.5692 57.0077 30.7157 56.7524 30.922C56.5083 31.1282 56.3141 31.4104 56.1699 31.7687C56.0367 32.116 55.9701 32.5502 55.9701 33.0712V37.3046H54.572Z" fill="#252525"/>
<path d="M60.8656 37.3046V29.0984H62.2638V37.3046H60.8656ZM61.5647 27.3562C61.2873 27.3562 61.0543 27.2693 60.8656 27.0957C60.6881 26.9111 60.5993 26.6832 60.5993 26.4118C60.5993 26.1404 60.6881 25.9233 60.8656 25.7605C61.0543 25.5868 61.2873 25.5 61.5647 25.5C61.831 25.5 62.0585 25.5868 62.2471 25.7605C62.4358 25.9233 62.5301 26.1404 62.5301 26.4118C62.5301 26.6832 62.4358 26.9111 62.2471 27.0957C62.0585 27.2693 61.831 27.3562 61.5647 27.3562Z" fill="#252525"/>
<path d="M64.7311 37.3046V29.0984H65.9961L66.0793 30.2707C66.3456 29.8474 66.7007 29.5163 67.1446 29.2775C67.5995 29.0278 68.0933 28.903 68.6259 28.903C69.0587 28.903 69.4471 28.9627 69.7911 29.0821C70.1461 29.1906 70.4568 29.3643 70.7232 29.6031C71.0006 29.8311 71.2169 30.1242 71.3723 30.4824C71.6608 29.983 72.0603 29.5977 72.5707 29.3263C73.0812 29.0441 73.6193 28.903 74.1852 28.903C74.8399 28.903 75.4059 29.0332 75.883 29.2938C76.3602 29.5434 76.7319 29.9288 76.9982 30.4498C77.2645 30.96 77.3977 31.6113 77.3977 32.4037V37.3046H76.0162V32.5502C76.0162 31.7252 75.8442 31.1065 75.5002 30.694C75.1562 30.2815 74.6679 30.0753 74.0354 30.0753C73.6027 30.0753 73.2143 30.1893 72.8703 30.4172C72.5263 30.6343 72.2545 30.9545 72.0547 31.3779C71.855 31.8012 71.7551 32.3223 71.7551 32.941V37.3046H70.357V32.5502C70.357 31.7252 70.185 31.1065 69.841 30.694C69.497 30.2815 69.0143 30.0753 68.3929 30.0753C67.9712 30.0753 67.5884 30.1893 67.2444 30.4172C66.9004 30.6343 66.6286 30.9545 66.4288 31.3779C66.2291 31.8012 66.1292 32.3223 66.1292 32.941V37.3046H64.7311Z" fill="#252525"/>
<path d="M83.2337 37.5C82.457 37.5 81.7634 37.3209 81.1531 36.9627C80.5428 36.6045 80.0657 36.1052 79.7217 35.4647C79.3777 34.8134 79.2057 34.059 79.2057 33.2015C79.2057 32.3331 79.3721 31.5787 79.705 30.9383C80.049 30.2978 80.5262 29.7985 81.1365 29.4403C81.7579 29.0821 82.4681 28.903 83.267 28.903C84.0881 28.903 84.7872 29.0821 85.3642 29.4403C85.9412 29.7985 86.3795 30.2707 86.6792 30.8569C86.9899 31.4322 87.1452 32.0672 87.1452 32.7619C87.1452 32.8704 87.1452 32.9844 87.1452 33.1038C87.1452 33.2232 87.1396 33.3589 87.1286 33.5109H80.2543V32.4525H85.7637C85.7304 31.7035 85.4752 31.1174 84.998 30.694C84.532 30.2707 83.9439 30.059 83.2337 30.059C82.7677 30.059 82.3293 30.1676 81.9188 30.3847C81.5082 30.5909 81.1809 30.9003 80.9367 31.3128C80.6926 31.7144 80.5706 32.2191 80.5706 32.827V33.2829C80.5706 33.9559 80.6926 34.5204 80.9367 34.9763C81.192 35.4322 81.5193 35.7741 81.9188 36.002C82.3293 36.23 82.7677 36.344 83.2337 36.344C83.8218 36.344 84.3045 36.2191 84.6818 35.9695C85.0702 35.709 85.3531 35.3562 85.5307 34.9111H86.9122C86.7679 35.4104 86.5294 35.8555 86.1965 36.2463C85.8636 36.6262 85.4474 36.9301 84.9481 37.1581C84.4599 37.386 83.8884 37.5 83.2337 37.5Z" fill="#252525"/>
<path d="M93.5199 37.3046V25.9071H96.9487C98.3135 25.9071 99.4398 26.1404 100.328 26.6072C101.215 27.0631 101.87 27.7198 102.292 28.5773C102.724 29.424 102.941 30.4444 102.941 31.6384C102.941 32.8107 102.724 33.8202 102.292 34.6669C101.87 35.5136 101.215 36.1649 100.328 36.6208C99.4398 37.0767 98.3135 37.3046 96.9487 37.3046H93.5199ZM94.918 36.1649H96.9154C98.0472 36.1649 98.946 35.9858 99.6118 35.6275C100.289 35.2585 100.771 34.7375 101.06 34.0645C101.348 33.3806 101.493 32.5719 101.493 31.6384C101.493 30.6832 101.348 29.8636 101.06 29.1798C100.771 28.4959 100.289 27.9695 99.6118 27.6004C98.946 27.2313 98.0472 27.0468 96.9154 27.0468H94.918V36.1649Z" fill="#252525"/>
<path d="M104.896 37.3046V29.0984H106.161L106.261 30.6615C106.45 30.2924 106.688 29.9776 106.977 29.7171C107.276 29.4566 107.631 29.2558 108.042 29.1147C108.464 28.9735 108.941 28.903 109.473 28.903V30.3358H108.957C108.602 30.3358 108.264 30.3847 107.942 30.4824C107.62 30.5692 107.332 30.7157 107.077 30.922C106.832 31.1282 106.638 31.4104 106.494 31.7687C106.361 32.116 106.294 32.5502 106.294 33.0712V37.3046H104.896Z" fill="#252525"/>
<path d="M111.19 37.3046V29.0984H112.588V37.3046H111.19ZM111.889 27.3562C111.611 27.3562 111.378 27.2693 111.19 27.0957C111.012 26.9111 110.923 26.6832 110.923 26.4118C110.923 26.1404 111.012 25.9233 111.19 25.7605C111.378 25.5868 111.611 25.5 111.889 25.5C112.155 25.5 112.383 25.5868 112.571 25.7605C112.76 25.9233 112.854 26.1404 112.854 26.4118C112.854 26.6832 112.76 26.9111 112.571 27.0957C112.383 27.2693 112.155 27.3562 111.889 27.3562Z" fill="#252525"/>
<path d="M117.469 37.3046L114.29 29.0984H115.754L118.284 35.9858L120.831 29.0984H122.262L119.083 37.3046H117.469Z" fill="#252525"/>
<path d="M127.089 37.5C126.312 37.5 125.618 37.3209 125.008 36.9627C124.398 36.6045 123.92 36.1052 123.576 35.4647C123.232 34.8134 123.06 34.059 123.06 33.2015C123.06 32.3331 123.227 31.5787 123.56 30.9383C123.904 30.2978 124.381 29.7985 124.991 29.4403C125.613 29.0821 126.323 28.903 127.122 28.903C127.943 28.903 128.642 29.0821 129.219 29.4403C129.796 29.7985 130.234 30.2707 130.534 30.8569C130.845 31.4322 131 32.0672 131 32.7619C131 32.8704 131 32.9844 131 33.1038C131 33.2232 130.994 33.3589 130.983 33.5109H124.109V32.4525H129.618C129.585 31.7035 129.33 31.1174 128.853 30.694C128.387 30.2707 127.799 30.059 127.089 30.059C126.622 30.059 126.184 30.1676 125.774 30.3847C125.363 30.5909 125.036 30.9003 124.792 31.3128C124.547 31.7144 124.425 32.2191 124.425 32.827V33.2829C124.425 33.9559 124.547 34.5204 124.792 34.9763C125.047 35.4322 125.374 35.7741 125.774 36.002C126.184 36.23 126.622 36.344 127.089 36.344C127.677 36.344 128.159 36.2191 128.537 35.9695C128.925 35.709 129.208 35.3562 129.385 34.9111H130.767C130.623 35.4104 130.384 35.8555 130.051 36.2463C129.718 36.6262 129.302 36.9301 128.803 37.1581C128.315 37.386 127.743 37.5 127.089 37.5Z" fill="#252525"/>
<path d="M45 22.2049V4.9918H50.6593C52.0102 4.9918 53.1223 5.22131 53.9955 5.68033C54.8852 6.12295 55.5359 6.72131 55.9478 7.47541C56.3762 8.22951 56.5904 9.09016 56.5904 10.0574C56.5904 10.9918 56.3762 11.8443 55.9478 12.6148C55.5359 13.3689 54.8934 13.9754 54.0202 14.4344C53.147 14.877 52.0267 15.0984 50.6593 15.0984H47.0759V22.2049H45ZM47.0759 13.3525H50.6098C51.9938 13.3525 52.9823 13.0574 53.5754 12.4672C54.1685 11.8607 54.465 11.0574 54.465 10.0574C54.465 8.9918 54.1685 8.17213 53.5754 7.59836C52.9823 7.0082 51.9938 6.71311 50.6098 6.71311H47.0759V13.3525Z" fill="#252525"/>
<path d="M62.6856 22.5C61.6806 22.5 60.8403 22.3279 60.1649 21.9836C59.4894 21.623 58.9869 21.1557 58.6574 20.582C58.3279 19.9918 58.1631 19.3525 58.1631 18.6639C58.1631 17.8279 58.3773 17.1229 58.8056 16.5492C59.2505 15.959 59.8683 15.5164 60.6591 15.2213C61.4664 14.9098 62.4137 14.7541 63.5011 14.7541H66.7879C66.7879 13.9836 66.6644 13.3443 66.4172 12.8361C66.1866 12.3115 65.8406 11.918 65.3793 11.6557C64.9344 11.3934 64.3743 11.2623 63.6988 11.2623C62.908 11.2623 62.2243 11.459 61.6476 11.8525C61.071 12.2459 60.7168 12.8279 60.585 13.5984H58.4597C58.5585 12.7131 58.8551 11.9754 59.3493 11.3852C59.8601 10.7787 60.5026 10.3197 61.2769 10.0082C62.0513 9.68033 62.8586 9.51639 63.6988 9.51639C64.8521 9.51639 65.8076 9.72951 66.5655 10.1557C67.3398 10.5656 67.9165 11.1475 68.2954 11.9016C68.6743 12.6393 68.8638 13.5164 68.8638 14.5328V22.2049H67.0103L66.8868 20.0164C66.722 20.3607 66.5078 20.6885 66.2442 21C65.9971 21.2951 65.7005 21.5574 65.3546 21.7869C65.0251 22 64.6379 22.1721 64.1931 22.3033C63.7482 22.4344 63.2457 22.5 62.6856 22.5ZM63.0068 20.7541C63.5835 20.7541 64.1024 20.6393 64.5638 20.4098C65.0415 20.1639 65.4452 19.8361 65.7747 19.4262C66.1042 19 66.3513 18.5328 66.5161 18.0246C66.6973 17.5164 66.7879 16.9836 66.7879 16.4262V16.3525H63.6741C62.8668 16.3525 62.216 16.4508 61.7218 16.6475C61.2275 16.8279 60.8733 17.0902 60.6591 17.4344C60.4449 17.7623 60.3378 18.1393 60.3378 18.5656C60.3378 19.0082 60.4367 19.3934 60.6344 19.7213C60.8486 20.0492 61.1534 20.3033 61.5488 20.4836C61.9607 20.6639 62.4467 20.7541 63.0068 20.7541Z" fill="#252525"/>
<path d="M72.0751 22.2049V9.81148H73.9533L74.0522 11.9754C74.4476 11.2049 75.0077 10.6066 75.7326 10.1803C76.474 9.73771 77.3143 9.51639 78.2534 9.51639C79.2254 9.51639 80.0656 9.71311 80.7741 10.1066C81.4825 10.4836 82.0344 11.0656 82.4298 11.8525C82.8252 12.623 83.0229 13.6066 83.0229 14.8033V22.2049H80.9471V15.0246C80.9471 13.7787 80.667 12.8443 80.1068 12.2213C79.5631 11.5984 78.7888 11.2869 77.7838 11.2869C77.0919 11.2869 76.474 11.459 75.9303 11.8033C75.3867 12.1311 74.9501 12.6148 74.6206 13.2541C74.3075 13.8771 74.151 14.6557 74.151 15.5902V22.2049H72.0751Z" fill="#252525"/>
<path d="M91.1589 22.2049C90.4175 22.2049 89.775 22.0902 89.2313 21.8607C88.6876 21.6311 88.2675 21.2459 87.9709 20.7049C87.6909 20.1475 87.5508 19.4016 87.5508 18.4672V11.5574H85.3761V9.81148H87.5508L87.8227 6.81147H89.6267V9.81148H93.2348V11.5574H89.6267V18.4672C89.6267 19.2377 89.7832 19.7623 90.0963 20.041C90.4093 20.3033 90.9612 20.4344 91.752 20.4344H93.0865V22.2049H91.1589Z" fill="#252525"/>
<path d="M95.9434 22.2049V4.5H98.0193V11.9016C98.4311 11.1639 99.0078 10.582 99.7492 10.1557C100.507 9.72951 101.331 9.51639 102.22 9.51639C103.176 9.51639 104.008 9.71311 104.716 10.1066C105.425 10.4836 105.969 11.0656 106.348 11.8525C106.726 12.6393 106.916 13.6311 106.916 14.8279V22.2049H104.865V15.0492C104.865 13.8033 104.601 12.8689 104.074 12.2459C103.547 11.6066 102.781 11.2869 101.776 11.2869C101.067 11.2869 100.425 11.459 99.848 11.8033C99.2878 12.1475 98.843 12.6393 98.5135 13.2787C98.184 13.918 98.0193 14.7049 98.0193 15.6393V22.2049H95.9434Z" fill="#252525"/>
<path d="M115.62 22.5C114.466 22.5 113.437 22.2295 112.531 21.6885C111.624 21.1475 110.916 20.3934 110.405 19.4262C109.895 18.4426 109.639 17.3033 109.639 16.0082C109.639 14.6967 109.886 13.5574 110.381 12.5902C110.891 11.623 111.6 10.8689 112.506 10.3279C113.428 9.78689 114.483 9.51639 115.669 9.51639C116.888 9.51639 117.926 9.78689 118.783 10.3279C119.64 10.8689 120.29 11.582 120.735 12.4672C121.197 13.3361 121.427 14.2951 121.427 15.3443C121.427 15.5082 121.427 15.6803 121.427 15.8607C121.427 16.041 121.419 16.2459 121.403 16.4754H111.196V14.877H119.376C119.327 13.7459 118.948 12.8607 118.239 12.2213C117.547 11.582 116.674 11.2623 115.62 11.2623C114.928 11.2623 114.277 11.4262 113.667 11.7541C113.058 12.0656 112.572 12.5328 112.209 13.1557C111.847 13.7623 111.666 14.5246 111.666 15.4426V16.1311C111.666 17.1475 111.847 18 112.209 18.6885C112.588 19.3771 113.074 19.8934 113.667 20.2377C114.277 20.582 114.928 20.7541 115.62 20.7541C116.493 20.7541 117.21 20.5656 117.77 20.1885C118.346 19.7951 118.766 19.2623 119.03 18.5902H121.081C120.867 19.3443 120.513 20.0164 120.019 20.6066C119.524 21.1803 118.906 21.6393 118.165 21.9836C117.44 22.3279 116.592 22.5 115.62 22.5Z" fill="#252525"/>
<path d="M124.204 22.2049V9.81148H126.082L126.23 12.1721C126.51 11.6148 126.865 11.1393 127.293 10.7459C127.738 10.3525 128.265 10.0492 128.875 9.83607C129.501 9.62295 130.209 9.51639 131 9.51639V11.6803H130.234C129.707 11.6803 129.204 11.7541 128.726 11.9016C128.249 12.0328 127.82 12.2541 127.441 12.5656C127.079 12.877 126.791 13.3033 126.576 13.8443C126.379 14.3689 126.28 15.0246 126.28 15.8115V22.2049H124.204Z" fill="#252525"/>
</g>
</g>
</svg>
