<svg width="86" height="33" viewBox="0 0 86 33" fill="none" xmlns="http://www.w3.org/2000/svg">
<path d="M0 32.8046V21.4071H3.81163C4.72154 21.4071 5.47055 21.559 6.05866 21.863C6.65787 22.156 7.09618 22.5522 7.37359 23.0516C7.6621 23.5509 7.80635 24.1208 7.80635 24.7612C7.80635 25.3799 7.6621 25.9444 7.37359 26.4545C7.09618 26.9539 6.66341 27.3555 6.0753 27.6594C5.48719 27.9525 4.73264 28.0991 3.81163 28.0991H1.39815V32.8046H0ZM1.39815 26.943H3.77834C4.71044 26.943 5.37623 26.7476 5.7757 26.3569C6.17517 25.9552 6.37491 25.4233 6.37491 24.7612C6.37491 24.0556 6.17517 23.5129 5.7757 23.133C5.37623 22.7422 4.71044 22.5468 3.77834 22.5468H1.39815V26.943Z" fill="#252525"/>
<path d="M9.57198 32.8046V24.5984H10.837L10.9368 26.1615C11.1255 25.7924 11.3641 25.4776 11.6526 25.2171C11.9522 24.9566 12.3073 24.7558 12.7178 24.6147C13.1395 24.4735 13.6166 24.403 14.1493 24.403V25.8358H13.6333C13.2782 25.8358 12.9398 25.8847 12.618 25.9824C12.2962 26.0692 12.0077 26.2157 11.7524 26.422C11.5083 26.6282 11.3141 26.9104 11.1699 27.2687C11.0367 27.616 10.9701 28.0502 10.9701 28.5712V32.8046H9.57198Z" fill="#252525"/>
<path d="M15.8656 32.8046V24.5984H17.2638V32.8046H15.8656ZM16.5647 22.8562C16.2873 22.8562 16.0543 22.7693 15.8656 22.5957C15.6881 22.4111 15.5993 22.1832 15.5993 21.9118C15.5993 21.6404 15.6881 21.4233 15.8656 21.2605C16.0543 21.0868 16.2873 21 16.5647 21C16.831 21 17.0585 21.0868 17.2471 21.2605C17.4358 21.4233 17.5301 21.6404 17.5301 21.9118C17.5301 22.1832 17.4358 22.4111 17.2471 22.5957C17.0585 22.7693 16.831 22.8562 16.5647 22.8562Z" fill="#252525"/>
<path d="M19.7311 32.8046V24.5984H20.9961L21.0793 25.7707C21.3456 25.3474 21.7007 25.0163 22.1446 24.7775C22.5995 24.5278 23.0933 24.403 23.6259 24.403C24.0587 24.403 24.4471 24.4627 24.7911 24.5821C25.1461 24.6906 25.4568 24.8643 25.7232 25.1031C26.0006 25.3311 26.2169 25.6242 26.3723 25.9824C26.6608 25.483 27.0603 25.0977 27.5707 24.8263C28.0812 24.5441 28.6193 24.403 29.1852 24.403C29.8399 24.403 30.4059 24.5332 30.883 24.7938C31.3602 25.0434 31.7319 25.4288 31.9982 25.9498C32.2645 26.46 32.3977 27.1113 32.3977 27.9037V32.8046H31.0162V28.0502C31.0162 27.2252 30.8442 26.6065 30.5002 26.194C30.1562 25.7815 29.6679 25.5753 29.0354 25.5753C28.6027 25.5753 28.2143 25.6893 27.8703 25.9172C27.5263 26.1343 27.2545 26.4545 27.0547 26.8779C26.855 27.3012 26.7551 27.8223 26.7551 28.441V32.8046H25.357V28.0502C25.357 27.2252 25.185 26.6065 24.841 26.194C24.497 25.7815 24.0143 25.5753 23.3929 25.5753C22.9712 25.5753 22.5884 25.6893 22.2444 25.9172C21.9004 26.1343 21.6286 26.4545 21.4288 26.8779C21.2291 27.3012 21.1292 27.8223 21.1292 28.441V32.8046H19.7311Z" fill="#252525"/>
<path d="M38.2337 33C37.457 33 36.7634 32.8209 36.1531 32.4627C35.5428 32.1045 35.0657 31.6052 34.7217 30.9647C34.3777 30.3134 34.2057 29.559 34.2057 28.7015C34.2057 27.8331 34.3721 27.0787 34.705 26.4383C35.049 25.7978 35.5262 25.2985 36.1365 24.9403C36.7579 24.5821 37.4681 24.403 38.267 24.403C39.0881 24.403 39.7872 24.5821 40.3642 24.9403C40.9412 25.2985 41.3795 25.7707 41.6792 26.3569C41.9899 26.9322 42.1452 27.5672 42.1452 28.2619C42.1452 28.3704 42.1452 28.4844 42.1452 28.6038C42.1452 28.7232 42.1397 28.8589 42.1286 29.0109H35.2543V27.9525H40.7637C40.7304 27.2035 40.4752 26.6174 39.998 26.194C39.532 25.7707 38.9439 25.559 38.2337 25.559C37.7677 25.559 37.3293 25.6676 36.9188 25.8847C36.5082 26.0909 36.1809 26.4003 35.9367 26.8128C35.6926 27.2144 35.5706 27.7191 35.5706 28.327V28.7829C35.5706 29.4559 35.6926 30.0204 35.9367 30.4763C36.192 30.9322 36.5193 31.2741 36.9188 31.502C37.3293 31.73 37.7677 31.844 38.2337 31.844C38.8218 31.844 39.3045 31.7191 39.6818 31.4695C40.0702 31.209 40.3531 30.8562 40.5307 30.4111H41.9122C41.7679 30.9104 41.5294 31.3555 41.1965 31.7463C40.8636 32.1262 40.4474 32.4301 39.9481 32.6581C39.4599 32.886 38.8884 33 38.2337 33Z" fill="#252525"/>
<path d="M48.5199 32.8046V21.4071H51.9487C53.3135 21.4071 54.4398 21.6404 55.3275 22.1072C56.2152 22.5631 56.8699 23.2198 57.2916 24.0773C57.7244 24.924 57.9407 25.9444 57.9407 27.1384C57.9407 28.3107 57.7244 29.3202 57.2916 30.1669C56.8699 31.0136 56.2152 31.6649 55.3275 32.1208C54.4398 32.5767 53.3135 32.8046 51.9487 32.8046H48.5199ZM49.918 31.6649H51.9154C53.0472 31.6649 53.946 31.4858 54.6118 31.1275C55.2887 30.7585 55.7714 30.2375 56.0599 29.5645C56.3484 28.8806 56.4926 28.0719 56.4926 27.1384C56.4926 26.1832 56.3484 25.3636 56.0599 24.6798C55.7714 23.9959 55.2887 23.4695 54.6118 23.1004C53.946 22.7313 53.0472 22.5468 51.9154 22.5468H49.918V31.6649Z" fill="#252525"/>
<path d="M59.8961 32.8046V24.5984H61.1611L61.2609 26.1615C61.4496 25.7924 61.6882 25.4776 61.9767 25.2171C62.2763 24.9566 62.6314 24.7558 63.0419 24.6147C63.4636 24.4735 63.9407 24.403 64.4734 24.403V25.8358H63.9574C63.6023 25.8358 63.2639 25.8847 62.9421 25.9824C62.6203 26.0692 62.3318 26.2157 62.0765 26.422C61.8324 26.6282 61.6382 26.9104 61.494 27.2687C61.3608 27.616 61.2942 28.0502 61.2942 28.5712V32.8046H59.8961Z" fill="#252525"/>
<path d="M66.1897 32.8046V24.5984H67.5879V32.8046H66.1897ZM66.8888 22.8562C66.6114 22.8562 66.3784 22.7693 66.1897 22.5957C66.0122 22.4111 65.9234 22.1832 65.9234 21.9118C65.9234 21.6404 66.0122 21.4233 66.1897 21.2605C66.3784 21.0868 66.6114 21 66.8888 21C67.1551 21 67.3826 21.0868 67.5712 21.2605C67.7599 21.4233 67.8542 21.6404 67.8542 21.9118C67.8542 22.1832 67.7599 22.4111 67.5712 22.5957C67.3826 22.7693 67.1551 22.8562 66.8888 22.8562Z" fill="#252525"/>
<path d="M72.4687 32.8046L69.2895 24.5984H70.7543L73.2842 31.4858L75.8309 24.5984H77.2623L74.0832 32.8046H72.4687Z" fill="#252525"/>
<path d="M82.0885 33C81.3118 33 80.6182 32.8209 80.0079 32.4627C79.3976 32.1045 78.9205 31.6052 78.5765 30.9647C78.2325 30.3134 78.0605 29.559 78.0605 28.7015C78.0605 27.8331 78.2269 27.0787 78.5598 26.4383C78.9038 25.7978 79.381 25.2985 79.9913 24.9403C80.6127 24.5821 81.3228 24.403 82.1218 24.403C82.9429 24.403 83.642 24.5821 84.219 24.9403C84.796 25.2985 85.2343 25.7707 85.5339 26.3569C85.8446 26.9322 86 27.5672 86 28.2619C86 28.3704 86 28.4844 86 28.6038C86 28.7232 85.9944 28.8589 85.9833 29.0109H79.1091V27.9525H84.6185C84.5852 27.2035 84.33 26.6174 83.8528 26.194C83.3868 25.7707 82.7987 25.559 82.0885 25.559C81.6225 25.559 81.1841 25.6676 80.7736 25.8847C80.363 26.0909 80.0357 26.4003 79.7915 26.8128C79.5474 27.2144 79.4253 27.7191 79.4253 28.327V28.7829C79.4253 29.4559 79.5474 30.0204 79.7915 30.4763C80.0468 30.9322 80.3741 31.2741 80.7736 31.502C81.1841 31.73 81.6225 31.844 82.0885 31.844C82.6766 31.844 83.1593 31.7191 83.5366 31.4695C83.925 31.209 84.2079 30.8562 84.3855 30.4111H85.767C85.6227 30.9104 85.3841 31.3555 85.0513 31.7463C84.7184 32.1262 84.3022 32.4301 83.8029 32.6581C83.3147 32.886 82.7432 33 82.0885 33Z" fill="#252525"/>
<path d="M0 17.7049V0.491803H5.65926C7.01023 0.491803 8.12231 0.721311 8.9955 1.18033C9.88517 1.62295 10.5359 2.22131 10.9478 2.97541C11.3762 3.72951 11.5904 4.59016 11.5904 5.55738C11.5904 6.4918 11.3762 7.34426 10.9478 8.11475C10.5359 8.86885 9.89341 9.47541 9.02022 9.93443C8.14703 10.377 7.02671 10.5984 5.65926 10.5984H2.07589V17.7049H0ZM2.07589 8.85246H5.60983C6.99376 8.85246 7.98228 8.55738 8.57539 7.96721C9.1685 7.36066 9.46505 6.55738 9.46505 5.55738C9.46505 4.4918 9.1685 3.67213 8.57539 3.09836C7.98228 2.5082 6.99376 2.21311 5.60983 2.21311H2.07589V8.85246Z" fill="#252525"/>
<path d="M17.6856 18C16.6806 18 15.8403 17.8279 15.1649 17.4836C14.4894 17.123 13.9869 16.6557 13.6574 16.082C13.3279 15.4918 13.1631 14.8525 13.1631 14.1639C13.1631 13.3279 13.3773 12.6229 13.8056 12.0492C14.2505 11.459 14.8683 11.0164 15.6591 10.7213C16.4664 10.4098 17.4137 10.2541 18.5011 10.2541H21.7879C21.7879 9.48361 21.6644 8.84426 21.4172 8.33607C21.1866 7.81148 20.8406 7.41803 20.3793 7.15574C19.9344 6.89344 19.3743 6.76229 18.6988 6.76229C17.908 6.76229 17.2243 6.95902 16.6476 7.35246C16.071 7.7459 15.7168 8.32787 15.585 9.09836H13.4597C13.5585 8.21311 13.8551 7.47541 14.3493 6.88525C14.8601 6.27869 15.5026 5.81967 16.2769 5.5082C17.0513 5.18033 17.8586 5.01639 18.6988 5.01639C19.8521 5.01639 20.8076 5.22951 21.5655 5.65574C22.3398 6.06557 22.9165 6.64754 23.2954 7.40164C23.6743 8.13934 23.8638 9.01639 23.8638 10.0328V17.7049H22.0103L21.8868 15.5164C21.722 15.8607 21.5078 16.1885 21.2442 16.5C20.9971 16.7951 20.7005 17.0574 20.3546 17.2869C20.0251 17.5 19.6379 17.6721 19.1931 17.8033C18.7482 17.9344 18.2457 18 17.6856 18ZM18.0068 16.2541C18.5835 16.2541 19.1024 16.1393 19.5638 15.9098C20.0415 15.6639 20.4452 15.3361 20.7747 14.9262C21.1042 14.5 21.3513 14.0328 21.5161 13.5246C21.6973 13.0164 21.7879 12.4836 21.7879 11.9262V11.8525H18.6741C17.8668 11.8525 17.216 11.9508 16.7218 12.1475C16.2275 12.3279 15.8733 12.5902 15.6591 12.9344C15.4449 13.2623 15.3378 13.6393 15.3378 14.0656C15.3378 14.5082 15.4367 14.8934 15.6344 15.2213C15.8486 15.5492 16.1534 15.8033 16.5488 15.9836C16.9607 16.1639 17.4467 16.2541 18.0068 16.2541Z" fill="#252525"/>
<path d="M27.0751 17.7049V5.31148H28.9533L29.0522 7.47541C29.4476 6.70492 30.0077 6.10656 30.7326 5.68033C31.474 5.23771 32.3143 5.01639 33.2534 5.01639C34.2254 5.01639 35.0656 5.21311 35.7741 5.60656C36.4825 5.98361 37.0344 6.56557 37.4298 7.35246C37.8252 8.12295 38.0229 9.10656 38.0229 10.3033V17.7049H35.9471V10.5246C35.9471 9.27869 35.667 8.34426 35.1068 7.72131C34.5631 7.09836 33.7888 6.78688 32.7838 6.78688C32.0919 6.78688 31.474 6.95902 30.9303 7.30328C30.3867 7.63115 29.9501 8.11475 29.6206 8.7541C29.3075 9.37705 29.151 10.1557 29.151 11.0902V17.7049H27.0751Z" fill="#252525"/>
<path d="M46.1589 17.7049C45.4175 17.7049 44.775 17.5902 44.2313 17.3607C43.6876 17.1311 43.2675 16.7459 42.9709 16.2049C42.6909 15.6475 42.5508 14.9016 42.5508 13.9672V7.05738H40.3761V5.31148H42.5508L42.8227 2.31147H44.6267V5.31148H48.2348V7.05738H44.6267V13.9672C44.6267 14.7377 44.7832 15.2623 45.0963 15.541C45.4093 15.8033 45.9612 15.9344 46.752 15.9344H48.0865V17.7049H46.1589Z" fill="#252525"/>
<path d="M50.9434 17.7049V0H53.0193V7.40164C53.4311 6.66393 54.0078 6.08197 54.7492 5.65574C55.507 5.22951 56.3308 5.01639 57.2205 5.01639C58.176 5.01639 59.008 5.21311 59.7165 5.60656C60.4249 5.98361 60.9686 6.56557 61.3475 7.35246C61.7264 8.13934 61.9159 9.13115 61.9159 10.3279V17.7049H59.8647V10.5492C59.8647 9.30328 59.6011 8.36885 59.0739 7.7459C58.5467 7.10656 57.7806 6.78688 56.7756 6.78688C56.0672 6.78688 55.4246 6.95902 54.848 7.30328C54.2878 7.64754 53.843 8.13935 53.5135 8.77869C53.184 9.41803 53.0193 10.2049 53.0193 11.1393V17.7049H50.9434Z" fill="#252525"/>
<path d="M70.6197 18C69.4664 18 68.4367 17.7295 67.5306 17.1885C66.6244 16.6475 65.916 15.8934 65.4053 14.9262C64.8945 13.9426 64.6392 12.8033 64.6392 11.5082C64.6392 10.1967 64.8863 9.05738 65.3805 8.09016C65.8913 7.12295 66.5997 6.36885 67.5059 5.82787C68.4285 5.28689 69.4829 5.01639 70.6691 5.01639C71.8883 5.01639 72.9262 5.28689 73.7829 5.82787C74.6397 6.36885 75.2904 7.08197 75.7353 7.96721C76.1966 8.83607 76.4272 9.79508 76.4272 10.8443C76.4272 11.0082 76.4272 11.1803 76.4272 11.3607C76.4272 11.541 76.419 11.7459 76.4025 11.9754H66.1961V10.377H74.376C74.3266 9.2459 73.9477 8.36066 73.2393 7.72131C72.5473 7.08197 71.6741 6.76229 70.6197 6.76229C69.9277 6.76229 69.277 6.92623 68.6674 7.2541C68.0578 7.56557 67.5718 8.03279 67.2093 8.65574C66.8468 9.2623 66.6656 10.0246 66.6656 10.9426V11.6311C66.6656 12.6475 66.8468 13.5 67.2093 14.1885C67.5882 14.8771 68.0743 15.3934 68.6674 15.7377C69.277 16.082 69.9277 16.2541 70.6197 16.2541C71.4929 16.2541 72.2095 16.0656 72.7697 15.6885C73.3463 15.2951 73.7665 14.7623 74.0301 14.0902H76.0812C75.8671 14.8443 75.5128 15.5164 75.0186 16.1066C74.5243 16.6803 73.9065 17.1393 73.1651 17.4836C72.4402 17.8279 71.5917 18 70.6197 18Z" fill="#252525"/>
<path d="M79.2039 17.7049V5.31148H81.0821L81.2304 7.67213C81.5105 7.11475 81.8647 6.63934 82.2931 6.2459C82.7379 5.85246 83.2651 5.54918 83.8747 5.33607C84.5008 5.12295 85.2092 5.01639 86 5.01639V7.18033H85.2339C84.7067 7.18033 84.2042 7.2541 83.7264 7.40164C83.2486 7.53279 82.8203 7.7541 82.4413 8.06557C82.0789 8.37705 81.7906 8.80328 81.5764 9.34426C81.3787 9.86885 81.2798 10.5246 81.2798 11.3115V17.7049H79.2039Z" fill="#252525"/>
</svg>
