<svg width="132" height="40" viewBox="0 0 132 40" fill="none" xmlns="http://www.w3.org/2000/svg">
<g id="Property 1=white bg">
<g id="Vector">
<path d="M40 20C40 31.0457 31.0457 40 20 40C8.9543 40 0 31.0457 0 20C0 8.9543 8.9543 0 20 0C31.0457 0 40 8.9543 40 20Z" fill="white"/>
<path d="M45 20.4545V3H50.8977C52.267 3 53.3864 3.24716 54.2557 3.74148C55.1307 4.23011 55.7784 4.89205 56.1989 5.72727C56.6193 6.5625 56.8295 7.49432 56.8295 8.52273C56.8295 9.55114 56.6193 10.4858 56.1989 11.3267C55.7841 12.1676 55.142 12.8381 54.2727 13.3381C53.4034 13.8324 52.2898 14.0795 50.9318 14.0795H46.7045V12.2045H50.8636C51.8011 12.2045 52.554 12.0426 53.1222 11.7188C53.6903 11.3949 54.1023 10.9574 54.358 10.4062C54.6193 9.84943 54.75 9.22159 54.75 8.52273C54.75 7.82386 54.6193 7.19886 54.358 6.64773C54.1023 6.09659 53.6875 5.66477 53.1136 5.35227C52.5398 5.03409 51.7784 4.875 50.8295 4.875H47.1136V20.4545H45Z" fill="white"/>
<path d="M63.8139 20.7614C62.9844 20.7614 62.2315 20.6051 61.5554 20.2926C60.8793 19.9744 60.3423 19.517 59.9446 18.9205C59.5469 18.3182 59.348 17.5909 59.348 16.7386C59.348 15.9886 59.4957 15.3807 59.7912 14.9148C60.0866 14.4432 60.4815 14.0739 60.9759 13.8068C61.4702 13.5398 62.0156 13.3409 62.6122 13.2102C63.2145 13.0739 63.8196 12.9659 64.4276 12.8864C65.223 12.7841 65.8679 12.7074 66.3622 12.6562C66.8622 12.5994 67.2259 12.5057 67.4531 12.375C67.6861 12.2443 67.8026 12.017 67.8026 11.6932V11.625C67.8026 10.7841 67.5724 10.1307 67.1122 9.66477C66.6577 9.19886 65.9673 8.96591 65.0412 8.96591C64.081 8.96591 63.3281 9.17614 62.7827 9.59659C62.2372 10.017 61.8537 10.4659 61.6321 10.9432L59.723 10.2614C60.0639 9.46591 60.5185 8.84659 61.0866 8.40341C61.6605 7.95455 62.2855 7.64205 62.9616 7.46591C63.6435 7.28409 64.3139 7.19318 64.973 7.19318C65.3935 7.19318 65.8764 7.24432 66.4219 7.34659C66.973 7.44318 67.5043 7.64489 68.0156 7.9517C68.5327 8.25852 68.9616 8.72159 69.3026 9.34091C69.6435 9.96023 69.8139 10.7898 69.8139 11.8295V20.4545H67.8026V18.6818H67.7003C67.5639 18.9659 67.3366 19.2699 67.0185 19.5938C66.7003 19.9176 66.277 20.1932 65.7486 20.4205C65.2202 20.6477 64.5753 20.7614 63.8139 20.7614ZM64.1207 18.9545C64.9162 18.9545 65.5866 18.7983 66.1321 18.4858C66.6832 18.1733 67.098 17.7699 67.3764 17.2756C67.6605 16.7813 67.8026 16.2614 67.8026 15.7159V13.875C67.7173 13.9773 67.5298 14.071 67.2401 14.1562C66.956 14.2358 66.6264 14.3068 66.2514 14.3693C65.8821 14.4261 65.5213 14.4773 65.169 14.5227C64.8224 14.5625 64.5412 14.5966 64.3253 14.625C63.8026 14.6932 63.3139 14.804 62.8594 14.9574C62.4105 15.1051 62.0469 15.3295 61.7685 15.6307C61.4957 15.9261 61.3594 16.3295 61.3594 16.8409C61.3594 17.5398 61.6179 18.0682 62.1349 18.4261C62.6577 18.7784 63.3196 18.9545 64.1207 18.9545Z" fill="white"/>
<path d="M75.4964 12.5795V20.4545H73.4851V7.36364H75.4283V9.40909H75.5987C75.9055 8.74432 76.3714 8.21023 76.9964 7.80682C77.6214 7.39773 78.4283 7.19318 79.4169 7.19318C80.3033 7.19318 81.0788 7.375 81.7436 7.73864C82.4084 8.09659 82.9254 8.64205 83.2947 9.375C83.6641 10.1023 83.8487 11.0227 83.8487 12.1364V20.4545H81.8374V12.2727C81.8374 11.2443 81.5703 10.4432 81.0362 9.86932C80.5021 9.28977 79.7692 9 78.8374 9C78.1953 9 77.6215 9.1392 77.1158 9.41761C76.6158 9.69602 76.2209 10.1023 75.9311 10.6364C75.6413 11.1705 75.4964 11.8182 75.4964 12.5795Z" fill="white"/>
<path d="M93.2173 7.36364V9.06818H86.4332V7.36364H93.2173ZM88.4105 4.22727H90.4219V16.7045C90.4219 17.2727 90.5043 17.6989 90.669 17.983C90.8395 18.2614 91.0554 18.4489 91.3168 18.5455C91.5838 18.6364 91.8651 18.6818 92.1605 18.6818C92.3821 18.6818 92.5639 18.6705 92.706 18.6477C92.848 18.6193 92.9616 18.5966 93.0469 18.5795L93.456 20.3864C93.3196 20.4375 93.1293 20.4886 92.8849 20.5398C92.6406 20.5966 92.331 20.625 91.956 20.625C91.3878 20.625 90.831 20.5028 90.2855 20.2585C89.7457 20.0142 89.2969 19.642 88.9389 19.142C88.5866 18.642 88.4105 18.0114 88.4105 17.25V4.22727Z" fill="white"/>
<path d="M98.5355 12.5795V20.4545H96.5241V3H98.5355V9.40909H98.706C99.0128 8.73295 99.473 8.19602 100.087 7.7983C100.706 7.39489 101.53 7.19318 102.558 7.19318C103.45 7.19318 104.232 7.37216 104.902 7.73011C105.572 8.08239 106.092 8.625 106.462 9.35795C106.837 10.0852 107.024 11.0114 107.024 12.1364V20.4545H105.013V12.2727C105.013 11.233 104.743 10.429 104.203 9.8608C103.669 9.28693 102.928 9 101.979 9C101.32 9 100.729 9.1392 100.206 9.41761C99.6889 9.69602 99.2798 10.1023 98.9787 10.6364C98.6832 11.1705 98.5355 11.8182 98.5355 12.5795Z" fill="white"/>
<path d="M116.192 20.7273C114.931 20.7273 113.843 20.4489 112.928 19.892C112.019 19.3295 111.317 18.5455 110.823 17.5398C110.335 16.5284 110.09 15.3523 110.09 14.0114C110.09 12.6705 110.335 11.4886 110.823 10.4659C111.317 9.4375 112.005 8.63636 112.886 8.0625C113.772 7.48295 114.806 7.19318 115.988 7.19318C116.67 7.19318 117.343 7.30682 118.008 7.53409C118.673 7.76136 119.278 8.13068 119.823 8.64205C120.369 9.14773 120.803 9.81818 121.127 10.6534C121.451 11.4886 121.613 12.517 121.613 13.7386V14.5909H111.522V12.8523H119.567C119.567 12.1136 119.42 11.4545 119.124 10.875C118.835 10.2955 118.42 9.83807 117.88 9.50284C117.346 9.16761 116.715 9 115.988 9C115.187 9 114.494 9.19886 113.908 9.59659C113.329 9.98864 112.883 10.5 112.57 11.1307C112.258 11.7614 112.102 12.4375 112.102 13.1591V14.3182C112.102 15.3068 112.272 16.1449 112.613 16.8324C112.96 17.5142 113.44 18.0341 114.053 18.392C114.667 18.7443 115.38 18.9205 116.192 18.9205C116.721 18.9205 117.198 18.8466 117.624 18.6989C118.056 18.5455 118.428 18.3182 118.741 18.017C119.053 17.7102 119.295 17.3295 119.465 16.875L121.408 17.4205C121.204 18.0795 120.86 18.6591 120.377 19.1591C119.894 19.6534 119.298 20.0398 118.587 20.3182C117.877 20.5909 117.079 20.7273 116.192 20.7273Z" fill="white"/>
<path d="M124.673 20.4545V7.36364H126.616V9.34091H126.752C126.991 8.69318 127.423 8.16761 128.048 7.7642C128.673 7.3608 129.377 7.15909 130.161 7.15909C130.309 7.15909 130.494 7.16193 130.715 7.16761C130.937 7.1733 131.104 7.18182 131.218 7.19318V9.23864C131.15 9.22159 130.994 9.19602 130.749 9.16193C130.511 9.12216 130.258 9.10227 129.991 9.10227C129.354 9.10227 128.786 9.2358 128.286 9.50284C127.792 9.7642 127.4 10.1278 127.11 10.5938C126.826 11.054 126.684 11.5795 126.684 12.1705V20.4545H124.673Z" fill="white"/>
<path d="M45 37.2795V25.3721H49.0785C50.0254 25.3721 50.7994 25.5407 51.4006 25.8779C52.0057 26.2113 52.4536 26.6628 52.7444 27.2326C53.0351 27.8024 53.1805 28.4381 53.1805 29.1397C53.1805 29.8412 53.0351 30.4789 52.7444 31.0525C52.4576 31.6262 52.0136 32.0836 51.4124 32.4247C50.8112 32.7619 50.0411 32.9305 49.1021 32.9305H46.1787V31.6514H49.0549C49.7032 31.6514 50.2238 31.5409 50.6167 31.32C51.0097 31.099 51.2945 30.8006 51.4713 30.4246C51.6521 30.0447 51.7424 29.6164 51.7424 29.1397C51.7424 28.6629 51.6521 28.2365 51.4713 27.8606C51.2945 27.4846 51.0077 27.19 50.6108 26.9768C50.214 26.7598 49.6875 26.6512 49.0313 26.6512H46.4617V37.2795H45Z" fill="white"/>
<path d="M55.3465 37.2795V28.349H56.6903V29.6978H56.7845C56.9496 29.256 57.2482 28.8974 57.6804 28.6222C58.1126 28.347 58.5998 28.2094 59.1421 28.2094C59.2442 28.2094 59.3719 28.2113 59.5251 28.2152C59.6784 28.2191 59.7943 28.2249 59.8729 28.2327V29.6281C59.8257 29.6164 59.7177 29.599 59.5487 29.5757C59.3837 29.5486 59.2088 29.535 59.0242 29.535C58.5841 29.535 58.1912 29.6261 57.8454 29.8083C57.5036 29.9866 57.2325 30.2347 57.0321 30.5525C56.8356 30.8665 56.7374 31.225 56.7374 31.6281V37.2795H55.3465Z" fill="white"/>
<path d="M61.5217 37.2795V28.349H62.9126V37.2795H61.5217ZM62.2289 26.8605C61.9578 26.8605 61.724 26.7694 61.5275 26.5873C61.335 26.4051 61.2388 26.1861 61.2388 25.9303C61.2388 25.6744 61.335 25.4554 61.5275 25.2733C61.724 25.0911 61.9578 25 62.2289 25C62.5 25 62.7318 25.0911 62.9244 25.2733C63.1208 25.4554 63.2191 25.6744 63.2191 25.9303C63.2191 26.1861 63.1208 26.4051 62.9244 26.5873C62.7318 26.7694 62.5 26.8605 62.2289 26.8605Z" fill="white"/>
<path d="M65.4601 37.2795V28.349H66.8039V29.7443H66.9218C67.1104 29.2676 67.4149 28.8974 67.8353 28.6338C68.2557 28.3664 68.7606 28.2327 69.35 28.2327C69.9473 28.2327 70.4443 28.3664 70.8411 28.6338C71.2419 28.8974 71.5543 29.2676 71.7782 29.7443H71.8725C72.1044 29.2831 72.4521 28.9168 72.9157 28.6455C73.3794 28.3703 73.9354 28.2327 74.5837 28.2327C75.3931 28.2327 76.0551 28.4827 76.5699 28.9827C77.0846 29.4788 77.3419 30.2521 77.3419 31.3025V37.2795H75.951V31.3025C75.951 30.6436 75.7683 30.1727 75.4029 29.8897C75.0375 29.6067 74.6072 29.4653 74.1122 29.4653C73.4756 29.4653 72.9825 29.6552 72.6328 30.0351C72.2831 30.411 72.1083 30.8878 72.1083 31.4653V37.2795H70.6938V31.163C70.6938 30.6552 70.5268 30.2463 70.1928 29.9362C69.8588 29.6222 69.4286 29.4653 68.9021 29.4653C68.5406 29.4653 68.2027 29.5602 67.8884 29.7502C67.578 29.9401 67.3265 30.2037 67.134 30.5409C66.9454 30.8742 66.8511 31.2599 66.8511 31.6979V37.2795H65.4601Z" fill="white"/>
<path d="M83.6807 37.4655C82.8084 37.4655 82.056 37.2756 81.4234 36.8958C80.7947 36.512 80.3094 35.9771 79.9676 35.291C79.6297 34.6011 79.4608 33.7988 79.4608 32.884C79.4608 31.9692 79.6297 31.163 79.9676 30.4653C80.3094 29.7637 80.7849 29.2172 81.3939 28.8257C82.0069 28.4303 82.722 28.2327 83.5392 28.2327C84.0107 28.2327 84.4763 28.3102 84.936 28.4652C85.3957 28.6203 85.8142 28.8722 86.1914 29.2211C86.5686 29.566 86.8692 30.0234 87.0932 30.5932C87.3171 31.163 87.4291 31.8646 87.4291 32.6979V33.2794H80.4509V32.0933H86.0146C86.0146 31.5894 85.9124 31.1397 85.7081 30.7444C85.5077 30.349 85.2209 30.037 84.8476 29.8083C84.4783 29.5796 84.0422 29.4653 83.5392 29.4653C82.9852 29.4653 82.5059 29.6009 82.1012 29.8723C81.7004 30.1397 81.3919 30.4886 81.1758 30.9188C80.9597 31.3491 80.8517 31.8103 80.8517 32.3026V33.0933C80.8517 33.7677 80.9695 34.3395 81.2053 34.8085C81.445 35.2736 81.777 35.6283 82.2013 35.8725C82.6257 36.1128 83.1188 36.2329 83.6807 36.2329C84.0461 36.2329 84.3761 36.1826 84.6708 36.0818C84.9694 35.9771 85.2268 35.8221 85.4429 35.6166C85.659 35.4073 85.826 35.1476 85.9439 34.8375L87.2876 35.2097C87.1462 35.6593 86.9085 36.0546 86.5745 36.3957C86.2405 36.733 85.828 36.9965 85.3368 37.1865C84.8457 37.3725 84.2936 37.4655 83.6807 37.4655Z" fill="white"/>
<path d="M96.6325 37.2795H92.9077V25.3721H96.7976C97.9685 25.3721 98.9704 25.6105 99.8034 26.0872C100.636 26.5601 101.275 27.2404 101.719 28.128C102.163 29.0118 102.385 30.0699 102.385 31.3025C102.385 32.5429 102.161 33.6108 101.713 34.5061C101.265 35.3976 100.613 36.0837 99.7562 36.5643C98.8997 37.0411 97.8584 37.2795 96.6325 37.2795ZM94.3693 36.0004H96.5382C97.5362 36.0004 98.3633 35.8104 99.0195 35.4306C99.6757 35.0507 100.165 34.51 100.487 33.8084C100.809 33.1069 100.97 32.2716 100.97 31.3025C100.97 30.3413 100.811 29.5137 100.493 28.8199C100.175 28.1222 99.6993 27.5873 99.0667 27.2152C98.4341 26.8392 97.6463 26.6512 96.7033 26.6512H94.3693V36.0004Z" fill="white"/>
<path d="M104.648 37.2795V28.349H105.992V29.6978H106.086C106.251 29.256 106.55 28.8974 106.982 28.6222C107.414 28.347 107.901 28.2094 108.444 28.2094C108.546 28.2094 108.673 28.2113 108.827 28.2152C108.98 28.2191 109.096 28.2249 109.174 28.2327V29.6281C109.127 29.6164 109.019 29.599 108.85 29.5757C108.685 29.5486 108.51 29.535 108.326 29.535C107.886 29.535 107.493 29.6261 107.147 29.8083C106.805 29.9866 106.534 30.2347 106.334 30.5525C106.137 30.8665 106.039 31.225 106.039 31.6281V37.2795H104.648Z" fill="white"/>
<path d="M110.823 37.2795V28.349H112.214V37.2795H110.823ZM111.53 26.8605C111.259 26.8605 111.026 26.7694 110.829 26.5873C110.637 26.4051 110.54 26.1861 110.54 25.9303C110.54 25.6744 110.637 25.4554 110.829 25.2733C111.026 25.0911 111.259 25 111.53 25C111.802 25 112.033 25.0911 112.226 25.2733C112.422 25.4554 112.521 25.6744 112.521 25.9303C112.521 26.1861 112.422 26.4051 112.226 26.5873C112.033 26.7694 111.802 26.8605 111.53 26.8605Z" fill="white"/>
<path d="M122.164 28.349L118.817 37.2795H117.402L114.054 28.349H115.563L118.062 35.4655H118.157L120.655 28.349H122.164Z" fill="white"/>
<path d="M127.472 37.4655C126.599 37.4655 125.847 37.2756 125.214 36.8958C124.586 36.512 124.1 35.9771 123.759 35.291C123.421 34.6011 123.252 33.7988 123.252 32.884C123.252 31.9692 123.421 31.163 123.759 30.4653C124.1 29.7637 124.576 29.2172 125.185 28.8257C125.798 28.4303 126.513 28.2327 127.33 28.2327C127.802 28.2327 128.267 28.3102 128.727 28.4652C129.187 28.6203 129.605 28.8722 129.982 29.2211C130.36 29.566 130.66 30.0234 130.884 30.5932C131.108 31.163 131.22 31.8646 131.22 32.6979V33.2794H124.242V32.0933H129.805C129.805 31.5894 129.703 31.1397 129.499 30.7444C129.299 30.349 129.012 30.037 128.639 29.8083C128.269 29.5796 127.833 29.4653 127.33 29.4653C126.776 29.4653 126.297 29.6009 125.892 29.8723C125.491 30.1397 125.183 30.4886 124.967 30.9188C124.751 31.3491 124.643 31.8103 124.643 32.3026V33.0933C124.643 33.7677 124.76 34.3395 124.996 34.8085C125.236 35.2736 125.568 35.6283 125.992 35.8725C126.417 36.1128 126.91 36.2329 127.472 36.2329C127.837 36.2329 128.167 36.1826 128.462 36.0818C128.76 35.9771 129.018 35.8221 129.234 35.6166C129.45 35.4073 129.617 35.1476 129.735 34.8375L131.079 35.2097C130.937 35.6593 130.699 36.0546 130.365 36.3957C130.031 36.733 129.619 36.9965 129.128 37.1865C128.637 37.3725 128.085 37.4655 127.472 37.4655Z" fill="white"/>
</g>
<path id="Intersect" fill-rule="evenodd" clip-rule="evenodd" d="M32.0247 35.9698C30.1078 37.4447 27.9119 38.5749 25.5298 39.2676C25.6829 38.1504 25.7929 37.0879 25.8177 35.9189C25.8505 34.3741 25.8317 32.8339 25.6838 31.2951C25.6768 31.222 25.6645 31.1484 25.6522 31.0747V31.0746V31.0746V31.0746V31.0746V31.0746C25.622 30.8932 25.5915 30.7104 25.638 30.5279C25.7684 30.514 25.838 30.5774 25.9041 30.6374L25.9041 30.6374L25.9041 30.6375C25.9173 30.6494 25.9303 30.6613 25.9437 30.6723C26.084 30.789 26.2232 30.907 26.3623 31.0251L26.3624 31.0252C26.5007 31.1425 26.6389 31.2598 26.7784 31.3757C27.2637 31.7792 27.7494 32.1823 28.2352 32.5853L28.2354 32.5856C29.2781 33.4508 30.3208 34.316 31.3597 35.1858C31.5989 35.3861 31.8998 35.6768 32.0247 35.9698ZM3.82031 31.5775C7.13049 36.3381 12.4859 39.5698 18.6141 40.0002C18.6084 39.9636 18.6005 39.92 18.5912 39.8683C18.5751 39.7794 18.5548 39.6667 18.5338 39.5247C16.6877 36.319 14.4758 33.4208 11.8925 30.8018C10.6414 29.5335 9.33172 28.3312 7.98448 27.1675C7.80277 27.0105 7.67411 26.9666 7.50899 27.191C6.8525 28.0828 6.17342 28.846 5.49398 29.6095L5.49397 29.6095L5.49396 29.6096L5.49395 29.6096C4.93211 30.241 4.37004 30.8726 3.82031 31.5775ZM13.7874 6.23202C14.9427 6.80743 15.8934 7.63343 16.7625 8.59895C17.4407 9.36959 18.0103 10.1945 18.5471 11.0488C18.5743 10.9477 18.587 10.8586 18.5724 10.7743C18.4391 10.006 18.1705 9.28479 17.739 8.54814C20.9939 8.81117 23.7369 10.1386 26.2648 12.0103C25.8259 11.3977 25.2969 10.8874 24.7452 10.3994C24.1984 9.91574 23.6053 9.4917 23.0003 9.07693C23.2053 9.056 23.3854 9.11405 23.5637 9.1715C23.5965 9.18208 23.6293 9.19265 23.6621 9.20269C26.4858 10.0658 28.8803 11.6446 31.0339 13.6254C31.3715 13.9359 31.678 14.2195 31.7184 14.7557C31.7417 15.0655 31.7825 15.3739 31.8233 15.6825C31.8931 16.2101 31.9629 16.7383 31.9457 17.2742C31.938 17.5138 31.9213 17.7543 31.8037 18.0373L30.0937 16.0681C30.4291 15.8627 30.6507 15.6326 30.7583 15.3104L30.7657 15.2887C30.7985 15.1933 30.8319 15.0964 30.6836 15.0477C30.4119 14.9584 30.0194 15.0689 29.8222 15.2861C29.8032 15.307 29.7866 15.3305 29.7696 15.3545C29.7236 15.4196 29.6746 15.4888 29.5672 15.5228C29.4122 15.3562 29.2585 15.187 29.1044 15.0172L29.1043 15.0172C28.6814 14.5515 28.2548 14.0819 27.7866 13.6507C28.821 15.6441 30.2149 17.381 31.6088 19.1178L31.6088 19.1178C32.0725 19.6956 32.5362 20.2734 32.9867 20.8607L32.9421 20.9421H29.0533L29.0911 20.9915C29.4031 21.3997 29.6446 21.7156 30.2115 21.692C31.1687 21.6522 32.1279 21.6605 33.087 21.6689H33.087H33.087H33.087H33.0871H33.0871H33.0871C33.4463 21.672 33.8055 21.6751 34.1646 21.6757C34.1882 21.6758 34.2121 21.6744 34.2363 21.673C34.3286 21.6678 34.4261 21.6622 34.5311 21.7331C34.43 21.9302 34.2966 22.1046 34.1636 22.2785C34.072 22.3982 33.9806 22.5177 33.9 22.6443C33.8359 22.7448 33.783 22.8293 33.8129 22.9671C33.9457 23.5786 33.9519 24.1991 33.8375 24.8115C33.6868 25.6191 33.3516 26.3436 32.7683 26.9389C32.622 27.0881 32.5257 27.1124 32.3886 26.8985C32.0539 26.3761 31.5196 26.2553 30.9451 26.2896C30.4523 26.3189 30.0331 26.5573 29.6173 26.7938C29.571 26.8201 29.5248 26.8464 29.4784 26.8724C28.9007 27.1968 28.301 27.4599 27.6485 27.5931C27.5985 27.6033 27.5472 27.6086 27.4946 27.6139C27.3619 27.6274 27.2206 27.6417 27.0692 27.7397C27.5776 27.8705 28.0415 27.8525 28.5056 27.7819C28.9141 27.7198 29.3 27.5814 29.6859 27.4429C29.8734 27.3756 30.0609 27.3084 30.2511 27.2498C30.8476 27.0662 31.4312 27.0295 31.9762 27.4036C32.2529 27.5936 32.3203 27.8039 32.2041 28.1191C32.059 28.5123 31.8422 28.8603 31.5241 29.1396C30.664 29.8947 29.645 30.0969 28.5493 29.9391C27.4147 29.7758 26.4559 29.201 25.5947 28.4852C23.9107 27.0855 21.961 26.3862 19.812 26.1318C18.4564 25.9713 17.1483 25.6269 15.9736 24.8862C14.8501 24.1778 13.9328 23.2674 13.3875 22.0506C12.5969 20.2863 12.5092 18.4473 12.9439 16.5725C13.1249 15.7919 13.3644 15.0302 13.6264 14.2643C13.5881 14.2781 13.5699 14.3057 13.5517 14.3332L13.5417 14.3481C12.336 16.0818 11.6368 17.9607 11.9415 20.1091C12.325 22.8126 13.7188 24.8123 16.1679 26.0455C17.4406 26.6863 18.8283 26.9055 20.2146 27.1245H20.2146L20.4539 27.1624C22.1027 27.4247 23.6382 27.9448 24.8908 29.1151C25.0744 29.2866 25.0992 29.3798 24.8743 29.5346C23.862 30.2312 22.8574 30.939 21.8555 31.6504C21.7077 31.7553 21.5855 31.7587 21.4213 31.6939C18.7425 30.6371 16.0663 29.5757 13.4668 28.3297C11.7006 27.483 9.98809 26.541 8.30617 25.5399C8.11348 25.4252 8.0351 25.3031 8.06562 25.067C8.26061 23.5595 8.51474 22.0618 8.80882 20.5713C9.2898 18.1337 10.0149 15.7724 11.0867 13.5254C11.1887 13.3114 11.1956 13.1257 11.1062 12.91C10.7132 11.9624 10.4222 10.9896 10.3405 9.95787C10.2737 9.11346 10.3141 8.28286 10.6286 7.49303C11.1008 6.30709 12.2692 5.47593 13.7874 6.23202ZM20.1 15.6362L20.1 15.6362C20.1347 15.6752 20.1692 15.714 20.1996 15.7554C21.0237 16.7952 22.0519 17.4392 23.295 17.7538C24.2435 17.9937 25.12 18.369 25.7708 19.1435C25.7848 19.1602 25.8047 19.1719 25.8387 19.1919L25.8387 19.1919C25.8598 19.2043 25.8863 19.2199 25.9201 19.2418C25.82 18.8187 25.6621 18.4874 25.4589 18.1787C25.0353 17.5351 24.4414 17.0918 23.6981 16.9303C22.4836 16.6663 21.4277 16.0702 20.368 15.4698L20.3251 15.4454C20.1098 15.3231 20.1004 15.3177 19.8992 15.2984C19.9262 15.441 20.0137 15.5393 20.0999 15.6362L20.1 15.6362ZM23.822 23.5364C22.9198 23.4643 22.0195 23.4546 21.1176 23.522C21.0886 23.5292 21.0611 23.5322 21.0349 23.535H21.0349C20.9568 23.5435 20.8903 23.5506 20.8306 23.6667C21.8559 23.7715 22.8655 23.9492 23.8726 24.1265C25.1658 24.3541 26.4549 24.581 27.7682 24.652C27.6758 24.4967 27.5365 24.439 27.4003 24.3825L27.3569 24.3643C26.2267 23.8843 25.044 23.634 23.822 23.5364ZM28.1223 23.3254C28.0397 23.17 28.0269 23.1508 27.9816 23.1217C27.0188 22.5023 25.975 22.2372 24.9002 22.074C24.3863 21.9961 23.8673 21.947 23.3459 21.9502C23.2443 21.9589 23.1864 21.9826 23.0471 22.0395L22.982 22.0661C23.5739 22.2096 24.1527 22.3818 24.7287 22.553C25.846 22.8853 26.9525 23.2143 28.1223 23.3254ZM22.2582 15.6066L22.2791 15.6246C22.9235 16.0687 23.606 16.1078 24.3675 16.0513C24.3194 15.9738 24.2743 15.8975 24.2302 15.8229L24.2302 15.8228C24.0835 15.5744 23.9479 15.3449 23.75 15.1557C23.6844 15.0931 23.6078 15.0475 23.5161 15.0407C22.997 15.0022 22.479 15.0165 21.9461 15.0597C21.9338 15.3283 22.0964 15.4678 22.2582 15.6066ZM17.3194 20.0805C17.2352 19.8742 17.1516 19.6695 17.0709 19.4638C16.8881 18.8916 16.7225 18.362 16.5478 17.8035C16.2303 18.7055 16.7149 20.9924 17.9073 21.6296C17.7272 21.0797 17.5214 20.5754 17.3194 20.0805ZM31.3711 24.3953C31.3427 24.4475 31.3144 24.4995 31.2844 24.5505L31.1994 24.6971C31.1313 24.8143 31.0712 24.9177 31.0132 25.0222C30.9171 25.1953 30.9825 25.2706 31.1681 25.2935C31.7263 25.3624 31.7708 25.3215 31.7527 24.7649C31.75 24.6812 31.7487 24.5974 31.7474 24.5133V24.5133V24.5132V24.5132V24.5132V24.5131V24.5131V24.5131C31.7444 24.3137 31.7414 24.1131 31.7185 23.9084C31.5597 24.0484 31.465 24.2226 31.3711 24.3953ZM17.999 31.9185C18.8681 32.4728 19.6559 33.0134 20.4441 33.5902C20.5964 33.7345 20.7173 33.7544 20.8946 33.6343C21.1998 33.4278 21.5466 33.3928 21.864 33.6072C22.0474 33.7311 22.1758 33.7011 22.3381 33.5865C22.8681 33.212 23.404 32.8457 23.9398 32.4795L23.9626 32.4639C24.1248 32.353 24.2894 32.2457 24.466 32.1306C24.549 32.0765 24.6346 32.0207 24.7238 31.962V36.8195C24.6021 36.8334 24.5295 36.7789 24.461 36.7275C24.4434 36.7143 24.4261 36.7012 24.4083 36.6896C24.0299 36.4436 23.6525 36.1963 23.275 35.949L23.2746 35.9488L23.2742 35.9486L23.2739 35.9483L23.2735 35.9481L23.2724 35.9474C22.944 35.7322 22.6155 35.5171 22.2865 35.3027C22.2761 35.296 22.2659 35.289 22.2556 35.2821C22.1649 35.2206 22.0778 35.1617 21.9482 35.2656C21.593 35.5506 21.2133 35.5132 20.8567 35.2712C20.7168 35.1763 20.6306 35.2163 20.5181 35.2913C19.7905 35.7761 19.062 36.2596 18.3306 36.7389C18.3107 36.752 18.2914 36.7673 18.2718 36.7829C18.2004 36.8397 18.1247 36.8999 17.999 36.8653V31.9185ZM27.4164 9.86819C28.0535 10.2399 28.6451 10.6414 29.189 11.0626C29.2841 11.0603 29.3108 11.0147 29.3281 10.971C29.8401 9.68394 30.0164 8.3789 29.5251 7.04223C29.4255 6.77146 29.2671 6.5335 29.0557 6.33668C28.6553 5.96393 28.2034 5.90615 27.6916 6.09188C26.7515 6.43311 25.8933 6.92478 25.0665 7.47653C24.6612 7.74701 24.2668 8.03383 23.8631 8.36474C25.0932 8.76369 26.2749 9.24249 27.4164 9.86819ZM22.4921 38.1012C22.4921 38.5902 22.0957 38.9865 21.6068 38.9865C21.1179 38.9865 20.7216 38.5902 20.7216 38.1012C20.7216 37.6123 21.1179 37.216 21.6068 37.216C22.0957 37.216 22.4921 37.6123 22.4921 38.1012Z" fill="#252525"/>
</g>
</svg>
