<svg width="40" height="40" viewBox="0 0 40 40" fill="none" xmlns="http://www.w3.org/2000/svg">
<g id="phone">
<path id="Vector" d="M29.9994 24.9738V27.9846C30.0005 28.2642 29.9432 28.5408 29.831 28.7969C29.7188 29.053 29.5542 29.2829 29.3478 29.4719C29.1415 29.6608 28.8978 29.8047 28.6325 29.8942C28.3672 29.9838 28.0861 30.017 27.8072 29.9919C24.7128 29.6563 21.7404 28.601 19.1289 26.9108C16.6992 25.3699 14.6393 23.3141 13.0953 20.8892C11.3959 18.271 10.3382 15.2901 10.0082 12.1879C9.98303 11.9104 10.0161 11.6307 10.1052 11.3666C10.1943 11.1025 10.3376 10.8599 10.5258 10.6541C10.7141 10.4483 10.9432 10.2838 11.1986 10.1712C11.454 10.0586 11.7301 10.0004 12.0093 10.0001H15.0261C15.5141 9.9953 15.9872 10.1678 16.3572 10.4854C16.7273 10.803 16.969 11.244 17.0373 11.7263C17.1646 12.6898 17.4007 13.6359 17.7412 14.5464C17.8765 14.9056 17.9058 15.296 17.8256 15.6713C17.7454 16.0466 17.559 16.3911 17.2887 16.664L16.0116 17.9386C17.4431 20.4512 19.5276 22.5315 22.0451 23.9602L23.3222 22.6856C23.5956 22.4158 23.9408 22.2298 24.3169 22.1498C24.6929 22.0698 25.0841 22.099 25.444 22.234C26.3564 22.5738 27.3043 22.8095 28.2698 22.9365C28.7582 23.0053 29.2044 23.2509 29.5233 23.6265C29.8422 24.0021 30.0116 24.4817 29.9994 24.9738Z" stroke="white" stroke-linecap="round" stroke-linejoin="round"/>
</g>
</svg>
