<svg width="40" height="41" viewBox="0 0 40 41" fill="none" xmlns="http://www.w3.org/2000/svg">
<path fill-rule="evenodd" clip-rule="evenodd" d="M20 40.5C31.0457 40.5 40 31.5457 40 20.5C40 9.45431 31.0457 0.5 20 0.5C8.95431 0.5 0 9.45431 0 20.5C0 31.5457 8.95431 40.5 20 40.5ZM20 39.0014C30.2181 39.0014 38.5014 30.7181 38.5014 20.5C38.5014 10.2819 30.2181 1.99856 20 1.99856C9.78194 1.99856 1.49856 10.2819 1.49856 20.5C1.49856 30.7181 9.78194 39.0014 20 39.0014Z" fill="#252525"/>
<path d="M27.2299 10.2758C27.8522 10.6388 28.4299 11.031 28.9611 11.4423C29.054 11.4401 29.08 11.3955 29.0969 11.3529C29.5969 10.0959 29.7692 8.82138 29.2893 7.51596C29.1921 7.25153 29.0374 7.01914 28.831 6.82692C28.4398 6.46288 27.9986 6.40646 27.4987 6.58784C26.5806 6.9211 25.7424 7.40127 24.935 7.94011C24.5391 8.20426 24.154 8.48438 23.7597 8.80755C24.961 9.19718 26.1151 9.66478 27.2299 10.2758Z" fill="#252525"/>
<path d="M16.8251 9.03625C15.9764 8.09331 15.048 7.28663 13.9197 6.72467C12.4369 5.98626 11.2958 6.79798 10.8347 7.9562C10.5275 8.72755 10.4881 9.53873 10.5534 10.3634C10.6331 11.371 10.9173 12.3211 11.3011 13.2465C11.3885 13.4571 11.3817 13.6385 11.2821 13.8475C10.2354 16.042 9.5272 18.348 9.05746 20.7286C8.77026 22.1843 8.52207 23.647 8.33164 25.1193C8.30184 25.3498 8.37839 25.469 8.56657 25.581C10.2092 26.5587 11.8817 27.4787 13.6066 28.3056C16.1452 29.5225 18.7588 30.559 21.375 31.5912C21.5353 31.6544 21.6548 31.6511 21.799 31.5486C22.7776 30.8539 23.7587 30.1627 24.7473 29.4824C24.9669 29.3312 24.9427 29.2401 24.7634 29.0726C23.5401 27.9297 22.0405 27.4218 20.4302 27.1656C18.999 26.938 17.5589 26.7367 16.2445 26.0749C13.8526 24.8705 12.4914 22.9176 12.1169 20.2772C11.8193 18.1791 12.5021 16.3442 13.6797 14.651C13.7014 14.6197 13.7182 14.585 13.7624 14.5691C13.5065 15.3171 13.2726 16.061 13.0958 16.8233C12.6714 18.6543 12.757 20.4503 13.5291 22.1733C14.0616 23.3617 14.9575 24.2508 16.0548 24.9426C17.202 25.666 18.4794 26.0024 19.8034 26.1591C21.9021 26.4076 23.8062 27.0905 25.4508 28.4575C26.2919 29.1566 27.2282 29.7179 28.3363 29.8774C29.4064 30.0315 30.4016 29.834 31.2416 29.0965C31.5522 28.8239 31.7639 28.484 31.9056 28.0999C32.0192 27.7922 31.9534 27.5867 31.6831 27.4012C31.1509 27.0358 30.5809 27.0717 29.9983 27.251C29.4305 27.4258 28.8866 27.6805 28.2937 27.7707C27.8404 27.8395 27.3874 27.8571 26.8908 27.7295C27.0972 27.5958 27.2844 27.6214 27.4566 27.5863C28.0938 27.4561 28.6795 27.1992 29.2437 26.8824C29.6952 26.629 30.1412 26.345 30.6761 26.3132C31.2372 26.2798 31.759 26.3978 32.0859 26.9079C32.2197 27.1168 32.3138 27.093 32.4567 26.9473C33.0263 26.366 33.3537 25.6584 33.5009 24.8697C33.6126 24.2716 33.6066 23.6656 33.4769 23.0685C33.4477 22.9338 33.4994 22.8513 33.5619 22.7532C33.755 22.45 34.0115 22.1883 34.1783 21.8633C34.0488 21.7758 33.931 21.8075 33.8203 21.8073C32.5333 21.8051 31.2446 21.7697 29.9597 21.8232C29.3839 21.8471 29.1518 21.5124 28.8285 21.0908C30.1345 21.0908 31.3804 21.0908 32.6264 21.0908C32.6409 21.0643 32.6554 21.0378 32.67 21.0112C30.9078 18.714 28.9378 16.5644 27.5915 13.9699C28.2154 14.5445 28.7637 15.1891 29.3304 15.7982C29.4741 15.7527 29.5107 15.6428 29.5795 15.567C29.772 15.3549 30.1554 15.247 30.4207 15.3342C30.5765 15.3854 30.527 15.4911 30.4937 15.5908C30.3886 15.9054 30.1722 16.1301 29.8446 16.3308C30.3997 16.97 30.9386 17.5907 31.5146 18.2539C31.6295 17.9775 31.6458 17.7427 31.6533 17.5086C31.6799 16.6791 31.4931 15.8687 31.4314 15.049C31.3919 14.5254 31.0926 14.2484 30.7628 13.9451C28.6596 12.0107 26.3211 10.4688 23.5635 9.62588C23.3572 9.56282 23.1542 9.47885 22.9171 9.50305C23.508 9.90813 24.0872 10.3222 24.6212 10.7946C25.1599 11.2712 25.6767 11.7695 26.1052 12.3678C23.6364 10.5399 20.9576 9.24352 17.7788 8.98663C18.2002 9.70605 18.4626 10.4104 18.5927 11.1607C18.607 11.2431 18.5946 11.3301 18.568 11.4288C18.0437 10.5945 17.4875 9.78888 16.8251 9.03625ZM20.1818 16.0254C20.0786 15.8845 19.9255 15.7744 19.8885 15.579C20.0973 15.5991 20.0946 15.6037 20.3464 15.7464C21.3813 16.3328 22.4125 16.915 23.5986 17.1728C24.3245 17.3305 24.9045 17.7635 25.3182 18.392C25.5167 18.6935 25.6709 19.0171 25.7686 19.4303C25.6822 19.3743 25.645 19.3606 25.6228 19.3342C24.9872 18.5778 24.1312 18.2114 23.2049 17.977C21.9908 17.6697 20.9867 17.0408 20.1818 16.0254ZM21.0784 23.6103C21.9592 23.5445 22.8384 23.554 23.7196 23.6244C24.913 23.7197 26.068 23.9642 27.1718 24.433C27.3178 24.4949 27.4736 24.5461 27.5735 24.7139C25.2921 24.5906 23.0854 23.9855 20.7981 23.7516C20.876 23.6003 20.9658 23.6386 21.0784 23.6103ZM27.782 23.2194C27.8262 23.2478 27.8386 23.2666 27.9193 23.4184C26.188 23.2539 24.5984 22.6006 22.8993 22.1885C23.0836 22.1138 23.1412 22.085 23.2546 22.0753C23.7639 22.0722 24.2707 22.1201 24.7726 22.1963C25.8222 22.3556 26.8417 22.6145 27.782 23.2194ZM22.2128 15.8976C22.0484 15.756 21.875 15.6195 21.8876 15.3459C22.408 15.3037 22.9139 15.2898 23.4209 15.3274C23.5104 15.334 23.5852 15.3785 23.6492 15.4397C23.9007 15.6801 24.049 15.9869 24.2523 16.3143C23.5086 16.3695 22.8421 16.3314 22.2128 15.8976ZM17.1263 19.647C17.3944 20.3298 17.694 21.0013 17.9432 21.7622C16.7787 21.1399 16.3054 18.9065 16.6155 18.0255C16.7861 18.571 16.9478 19.0882 17.1263 19.647ZM31.0075 24.6148C31.1337 24.4004 31.2295 24.1658 31.4315 23.9877C31.4632 24.2719 31.4558 24.5483 31.4648 24.8242C31.4825 25.3677 31.4391 25.4077 30.8939 25.3404C30.7126 25.318 30.6488 25.2445 30.7426 25.0755C30.8217 24.933 30.9047 24.7926 31.0075 24.6148Z" fill="#252525"/>
<path d="M18.555 39.2388C16.752 36.1082 14.5919 33.2778 12.069 30.72C10.8471 29.4813 9.56813 28.3071 8.25239 27.1707C8.07493 27.0173 7.94928 26.9745 7.78801 27.1936C6.51303 28.9256 5.68786 30.0098 4.40922 31.7392C4.38179 31.7763 4.04428 32.149 4.00576 32.2291C10.3458 39.7507 17.5504 39.7507 17.5504 39.7507C18.8184 39.7507 18.7032 40.2406 18.555 39.2388Z" fill="#252525"/>
<path d="M31.162 35.7545C30.0287 37.341 30.1153 37.1571 28.6455 38.5115C28.6455 38.5115 26.5418 39.4049 25.2738 39.7795C25.481 38.3855 25.6386 37.1313 25.6686 35.7174C25.7006 34.2086 25.6823 32.7045 25.5379 31.2017C25.5141 30.9545 25.4292 30.7032 25.4931 30.4524C25.6458 30.4362 25.7133 30.5284 25.7916 30.5935C26.0649 30.8206 26.3335 31.0533 26.6068 31.2804C28.0984 32.5205 29.5937 33.7561 31.081 35.0014C31.4605 35.3191 31.4586 35.3393 31.162 35.7545Z" fill="#252525"/>
<path d="M20.4206 33.4431C19.6508 32.8798 18.8814 32.3518 18.0326 31.8105C18.0326 33.4774 18.0326 35.0609 18.0326 36.6417C18.1892 36.6847 18.2663 36.5774 18.3565 36.5182C19.0708 36.0501 19.7822 35.5779 20.4929 35.1044C20.6028 35.0312 20.6869 34.9921 20.8235 35.0848C21.1718 35.3212 21.5426 35.3577 21.8895 35.0794C22.0304 34.9664 22.1198 35.0504 22.2199 35.1156C22.9114 35.5661 23.6003 36.0202 24.292 36.4701C24.3771 36.5254 24.4507 36.614 24.6002 36.5969C24.6002 35.036 24.6002 33.474 24.6002 31.853C24.3276 32.0323 24.0897 32.184 23.8568 32.3432C23.3261 32.7059 22.7952 33.0685 22.2703 33.4395C22.1118 33.5515 21.9864 33.5808 21.8073 33.4598C21.4973 33.2504 21.1586 33.2845 20.8606 33.4862C20.6874 33.6035 20.5693 33.584 20.4206 33.4431Z" fill="#252525"/>
<path d="M21.5562 38.7133C22.0337 38.7133 22.4207 38.3262 22.4207 37.8487C22.4207 37.3712 22.0337 36.9841 21.5562 36.9841C21.0787 36.9841 20.6916 37.3712 20.6916 37.8487C20.6916 38.3262 21.0787 38.7133 21.5562 38.7133Z" fill="#252525"/>
</svg>
